<svg width="30" height="27" viewBox="0 0 30 27" fill="none" xmlns="http://www.w3.org/2000/svg">
<path d="M12.6004 1.62012C6.96133 1.62012 2.40039 5.72496 2.40039 10.8001C2.40039 15.8753 6.96133 19.9801 12.6004 19.9801C14.6137 19.9801 16.477 19.4486 18.0566 18.5457L25.4254 25.1776L27.9754 22.8826L20.7004 16.352C22.0082 14.8079 22.8004 12.8947 22.8004 10.8001C22.8004 5.72496 18.2395 1.62012 12.6004 1.62012ZM12.6004 3.78012C16.9199 3.78012 20.4004 6.91254 20.4004 10.8001C20.4004 14.6877 16.9199 17.8201 12.6004 17.8201C8.28086 17.8201 4.80039 14.6877 4.80039 10.8001C4.80039 6.91254 8.28086 3.78012 12.6004 3.78012Z" fill="black"/>
</svg>
