<svg width="30" height="27" viewBox="0 0 30 27" fill="none" xmlns="http://www.w3.org/2000/svg">
<path d="M12.5999 1.62012C6.96084 1.62012 2.3999 5.72496 2.3999 10.8001C2.3999 15.8753 6.96084 19.9801 12.5999 19.9801C14.6132 19.9801 16.4765 19.4486 18.0562 18.5457L25.4249 25.1776L27.9749 22.8826L20.6999 16.352C22.0077 14.8079 22.7999 12.8947 22.7999 10.8001C22.7999 5.72496 18.239 1.62012 12.5999 1.62012ZM12.5999 3.78012C16.9194 3.78012 20.3999 6.91254 20.3999 10.8001C20.3999 14.6877 16.9194 17.8201 12.5999 17.8201C8.28037 17.8201 4.7999 14.6877 4.7999 10.8001C4.7999 6.91254 8.28037 3.78012 12.5999 3.78012Z" fill="black"/>
</svg>
